<mxfile host="app.diagrams.net" modified="2021-03-18T12:56:21.475Z" agent="5.0 (X11; Linux x86_64) AppleWebKit/537.36 (KHTML, like Gecko) Chrome/89.0.4389.72 Safari/537.36" etag="pElwq4sBKQ8j_qTq_bN1" version="14.4.9" type="github">
  <diagram id="C5RBs43oDa-KdzZeNtuy" name="Page-1">
    <mxGraphModel dx="1422" dy="746" grid="1" gridSize="10" guides="1" tooltips="1" connect="1" arrows="1" fold="1" page="1" pageScale="1" pageWidth="827" pageHeight="1169" math="0" shadow="0">
      <root>
        <mxCell id="WIyWlLk6GJQsqaUBKTNV-0" />
        <mxCell id="WIyWlLk6GJQsqaUBKTNV-1" parent="WIyWlLk6GJQsqaUBKTNV-0" />
        <mxCell id="odclQTUaWaFZLpxSGTvi-2" style="edgeStyle=orthogonalEdgeStyle;rounded=0;orthogonalLoop=1;jettySize=auto;html=1;exitX=0.5;exitY=0.5;exitDx=0;exitDy=0;exitPerimeter=0;" edge="1" parent="WIyWlLk6GJQsqaUBKTNV-1" source="odclQTUaWaFZLpxSGTvi-6">
          <mxGeometry relative="1" as="geometry">
            <mxPoint x="220" y="100" as="targetPoint" />
          </mxGeometry>
        </mxCell>
        <mxCell id="odclQTUaWaFZLpxSGTvi-20" value="" style="rounded=0;whiteSpace=wrap;html=1;" vertex="1" parent="WIyWlLk6GJQsqaUBKTNV-1">
          <mxGeometry x="220" y="270" width="120" height="60" as="geometry" />
        </mxCell>
        <mxCell id="odclQTUaWaFZLpxSGTvi-8" style="edgeStyle=orthogonalEdgeStyle;rounded=0;orthogonalLoop=1;jettySize=auto;html=1;exitX=1;exitY=0.5;exitDx=0;exitDy=0;" edge="1" parent="WIyWlLk6GJQsqaUBKTNV-1" source="WIyWlLk6GJQsqaUBKTNV-3" target="odclQTUaWaFZLpxSGTvi-7">
          <mxGeometry relative="1" as="geometry" />
        </mxCell>
        <mxCell id="odclQTUaWaFZLpxSGTvi-11" style="edgeStyle=orthogonalEdgeStyle;rounded=0;orthogonalLoop=1;jettySize=auto;html=1;exitX=0.5;exitY=1;exitDx=0;exitDy=0;entryX=0.5;entryY=0;entryDx=0;entryDy=0;" edge="1" parent="WIyWlLk6GJQsqaUBKTNV-1" source="odclQTUaWaFZLpxSGTvi-15" target="odclQTUaWaFZLpxSGTvi-13">
          <mxGeometry relative="1" as="geometry">
            <mxPoint x="280" y="200" as="targetPoint" />
          </mxGeometry>
        </mxCell>
        <mxCell id="WIyWlLk6GJQsqaUBKTNV-3" value="SWAP CONTRACT&lt;br&gt;(ETH MAINNET)" style="rounded=1;whiteSpace=wrap;html=1;fontSize=12;glass=0;strokeWidth=1;shadow=0;" parent="WIyWlLk6GJQsqaUBKTNV-1" vertex="1">
          <mxGeometry x="220" y="80" width="120" height="40" as="geometry" />
        </mxCell>
        <mxCell id="odclQTUaWaFZLpxSGTvi-0" value="User" style="shape=umlActor;verticalLabelPosition=bottom;verticalAlign=top;html=1;outlineConnect=0;" vertex="1" parent="WIyWlLk6GJQsqaUBKTNV-1">
          <mxGeometry x="20" y="70" width="30" height="60" as="geometry" />
        </mxCell>
        <mxCell id="odclQTUaWaFZLpxSGTvi-5" value="HYDRO(ERC20) TO HYDRO(BEP20)&lt;br&gt;(BACKEND ARCHITECTURE)" style="text;html=1;strokeColor=none;fillColor=none;align=center;verticalAlign=middle;whiteSpace=wrap;rounded=0;" vertex="1" parent="WIyWlLk6GJQsqaUBKTNV-1">
          <mxGeometry x="230" width="230" height="50" as="geometry" />
        </mxCell>
        <mxCell id="odclQTUaWaFZLpxSGTvi-7" value="MAIN COLLECTOR/DISSEMINATOR&lt;br&gt;ADDRESS&lt;br&gt;&lt;br&gt;" style="shape=process;whiteSpace=wrap;html=1;backgroundOutline=1;" vertex="1" parent="WIyWlLk6GJQsqaUBKTNV-1">
          <mxGeometry x="460" y="70" width="240" height="60" as="geometry" />
        </mxCell>
        <mxCell id="odclQTUaWaFZLpxSGTvi-9" value="transfer(amount)" style="text;html=1;strokeColor=none;fillColor=none;align=center;verticalAlign=middle;whiteSpace=wrap;rounded=0;" vertex="1" parent="WIyWlLk6GJQsqaUBKTNV-1">
          <mxGeometry x="374" y="77" width="40" height="20" as="geometry" />
        </mxCell>
        <mxCell id="odclQTUaWaFZLpxSGTvi-22" style="edgeStyle=orthogonalEdgeStyle;rounded=1;orthogonalLoop=1;jettySize=auto;html=1;entryX=0.25;entryY=1;entryDx=0;entryDy=0;strokeColor=#FF0000;" edge="1" parent="WIyWlLk6GJQsqaUBKTNV-1" source="odclQTUaWaFZLpxSGTvi-13" target="odclQTUaWaFZLpxSGTvi-7">
          <mxGeometry relative="1" as="geometry" />
        </mxCell>
        <mxCell id="odclQTUaWaFZLpxSGTvi-13" value="Listening bot" style="text;html=1;strokeColor=none;fillColor=none;align=center;verticalAlign=middle;whiteSpace=wrap;rounded=0;" vertex="1" parent="WIyWlLk6GJQsqaUBKTNV-1">
          <mxGeometry x="220" y="270" width="120" height="50" as="geometry" />
        </mxCell>
        <mxCell id="odclQTUaWaFZLpxSGTvi-15" value="depositReceived&lt;br&gt;(address,amount)" style="text;html=1;strokeColor=none;fillColor=none;align=center;verticalAlign=middle;whiteSpace=wrap;rounded=0;" vertex="1" parent="WIyWlLk6GJQsqaUBKTNV-1">
          <mxGeometry x="230" y="170" width="100" height="30" as="geometry" />
        </mxCell>
        <mxCell id="odclQTUaWaFZLpxSGTvi-26" style="edgeStyle=orthogonalEdgeStyle;rounded=0;orthogonalLoop=1;jettySize=auto;html=1;exitX=0.5;exitY=1;exitDx=0;exitDy=0;entryX=0.5;entryY=0;entryDx=0;entryDy=0;" edge="1" parent="WIyWlLk6GJQsqaUBKTNV-1" source="WIyWlLk6GJQsqaUBKTNV-3" target="odclQTUaWaFZLpxSGTvi-15">
          <mxGeometry relative="1" as="geometry">
            <mxPoint x="280" y="270" as="targetPoint" />
            <mxPoint x="280" y="120" as="sourcePoint" />
          </mxGeometry>
        </mxCell>
        <mxCell id="odclQTUaWaFZLpxSGTvi-6" value="swap(amount)" style="text;html=1;strokeColor=none;align=center;verticalAlign=middle;whiteSpace=wrap;rounded=0;fillColor=#ffffff;" vertex="1" parent="WIyWlLk6GJQsqaUBKTNV-1">
          <mxGeometry x="110" y="75" width="73" height="50" as="geometry" />
        </mxCell>
        <mxCell id="odclQTUaWaFZLpxSGTvi-31" style="edgeStyle=orthogonalEdgeStyle;rounded=0;orthogonalLoop=1;jettySize=auto;html=1;exitX=0.5;exitY=0.5;exitDx=0;exitDy=0;exitPerimeter=0;" edge="1" parent="WIyWlLk6GJQsqaUBKTNV-1">
          <mxGeometry relative="1" as="geometry">
            <mxPoint x="105" y="100" as="targetPoint" />
            <mxPoint x="34" y="100" as="sourcePoint" />
          </mxGeometry>
        </mxCell>
        <mxCell id="odclQTUaWaFZLpxSGTvi-43" value="" style="group" vertex="1" connectable="0" parent="WIyWlLk6GJQsqaUBKTNV-1">
          <mxGeometry x="890" y="240" width="155" height="110" as="geometry" />
        </mxCell>
        <mxCell id="odclQTUaWaFZLpxSGTvi-23" value="&lt;span&gt;&lt;font color=&quot;#ff0000&quot;&gt;bsc_mainnet_rpc&lt;/font&gt;&lt;/span&gt;" style="text;html=1;strokeColor=none;fillColor=none;align=center;verticalAlign=middle;whiteSpace=wrap;rounded=0;" vertex="1" parent="odclQTUaWaFZLpxSGTvi-43">
          <mxGeometry x="60" y="30" width="90" height="20" as="geometry" />
        </mxCell>
        <mxCell id="odclQTUaWaFZLpxSGTvi-36" value="KEY" style="text;html=1;align=center;verticalAlign=middle;whiteSpace=wrap;rounded=0;fillColor=#ffffff;gradientColor=#ffffff;gradientDirection=east;strokeColor=#000000;" vertex="1" parent="odclQTUaWaFZLpxSGTvi-43">
          <mxGeometry x="42.5" width="40" height="20" as="geometry" />
        </mxCell>
        <mxCell id="odclQTUaWaFZLpxSGTvi-37" value="" style="endArrow=classic;html=1;strokeColor=#FF0000;" edge="1" parent="odclQTUaWaFZLpxSGTvi-43">
          <mxGeometry width="50" height="50" relative="1" as="geometry">
            <mxPoint y="40" as="sourcePoint" />
            <mxPoint x="45" y="40" as="targetPoint" />
            <Array as="points">
              <mxPoint y="40" />
            </Array>
          </mxGeometry>
        </mxCell>
        <mxCell id="odclQTUaWaFZLpxSGTvi-39" value="" style="endArrow=classic;html=1;" edge="1" parent="odclQTUaWaFZLpxSGTvi-43">
          <mxGeometry x="-30" y="90" width="50" height="50" as="geometry">
            <mxPoint y="100" as="sourcePoint" />
            <mxPoint x="45" y="100" as="targetPoint" />
          </mxGeometry>
        </mxCell>
        <mxCell id="odclQTUaWaFZLpxSGTvi-40" value="&lt;span&gt;eth_mainnet_rpc&lt;/span&gt;" style="text;html=1;align=center;verticalAlign=middle;resizable=0;points=[];autosize=1;" vertex="1" parent="odclQTUaWaFZLpxSGTvi-43">
          <mxGeometry x="55" y="90" width="100" height="20" as="geometry" />
        </mxCell>
        <mxCell id="odclQTUaWaFZLpxSGTvi-21" value="request&lt;br&gt;(address,amount)" style="text;html=1;align=center;verticalAlign=middle;whiteSpace=wrap;rounded=0;perimeterSpacing=2;strokeColor=#FFFFFF;fillColor=#ffffff;" vertex="1" parent="WIyWlLk6GJQsqaUBKTNV-1">
          <mxGeometry x="454" y="201" width="130" height="20" as="geometry" />
        </mxCell>
        <mxCell id="odclQTUaWaFZLpxSGTvi-51" style="edgeStyle=orthogonalEdgeStyle;rounded=1;orthogonalLoop=1;jettySize=auto;html=1;strokeColor=#FF0000;" edge="1" parent="WIyWlLk6GJQsqaUBKTNV-1" source="odclQTUaWaFZLpxSGTvi-45">
          <mxGeometry relative="1" as="geometry">
            <mxPoint x="35" y="160" as="targetPoint" />
            <Array as="points">
              <mxPoint x="590" y="350" />
              <mxPoint x="35" y="350" />
            </Array>
          </mxGeometry>
        </mxCell>
        <mxCell id="odclQTUaWaFZLpxSGTvi-45" value="after &lt;br&gt;15 confirmations" style="text;html=1;strokeColor=none;fillColor=none;align=center;verticalAlign=middle;whiteSpace=wrap;rounded=0;" vertex="1" parent="WIyWlLk6GJQsqaUBKTNV-1">
          <mxGeometry x="530" y="150" width="120" height="20" as="geometry" />
        </mxCell>
        <mxCell id="odclQTUaWaFZLpxSGTvi-46" style="edgeStyle=orthogonalEdgeStyle;rounded=1;orthogonalLoop=1;jettySize=auto;html=1;exitX=0.5;exitY=1;exitDx=0;exitDy=0;strokeColor=#FF0000;" edge="1" parent="WIyWlLk6GJQsqaUBKTNV-1" source="odclQTUaWaFZLpxSGTvi-7">
          <mxGeometry relative="1" as="geometry">
            <mxPoint x="580" y="130" as="sourcePoint" />
            <mxPoint x="590" y="150" as="targetPoint" />
          </mxGeometry>
        </mxCell>
        <mxCell id="odclQTUaWaFZLpxSGTvi-47" value="0x000...0" style="text;html=1;strokeColor=none;fillColor=none;align=center;verticalAlign=middle;whiteSpace=wrap;rounded=0;" vertex="1" parent="WIyWlLk6GJQsqaUBKTNV-1">
          <mxGeometry x="553" y="47" width="40" height="20" as="geometry" />
        </mxCell>
        <mxCell id="odclQTUaWaFZLpxSGTvi-50" value="transfer(address,amount)" style="text;html=1;strokeColor=none;align=center;verticalAlign=middle;whiteSpace=wrap;rounded=0;fillColor=#ffffff;" vertex="1" parent="WIyWlLk6GJQsqaUBKTNV-1">
          <mxGeometry x="374" y="340" width="130" height="20" as="geometry" />
        </mxCell>
      </root>
    </mxGraphModel>
  </diagram>
</mxfile>
